<svg xmlns="http://www.w3.org/2000/svg" viewBox="0 0 24 24" fill="#000000" id="Eyes-Bold--Streamline-Phosphor" height="24" width="24">
  <desc>
    Eyes Bold Streamline Icon: https://streamlinehq.com
  </desc>
  <path d="M22.07004375 4.595559375000001c-1.227178125 -2.24638125 -2.946534375 -3.48444375 -4.843378125 -3.48444375s-3.6162 1.2380624999999998 -4.843378125 3.48444375c-0.13501875 0.248259375 -0.2635125 0.506334375 -0.3832875 0.7741968750000001 -0.119775 -0.2678625 -0.24826875 -0.5259375000000001 -0.3832875 -0.7741968750000001 -1.227178125 -2.24638125 -2.946534375 -3.48444375 -4.843378125 -3.48444375s-3.6162 1.2380624999999998 -4.843378125 3.48444375C0.8399812499999999 6.596934375 0.24 9.225515625 0.24 12s0.59998125 5.403065625 1.6899562499999998 7.404440624999999c1.227178125 2.24529375 2.946534375 3.484453125 4.843378125 3.484453125s3.6162 -1.239159375 4.843378125 -3.484453125c0.13501875 -0.248259375 0.2635125 -0.506325 0.3832875 -0.7741968750000001 0.119775 0.267871875 0.24826875 0.5259375000000001 0.3832875 0.7741968750000001 1.227178125 2.24855625 2.946534375 3.484453125 4.843378125 3.484453125s3.6162 -1.239159375 4.843378125 -3.484453125C23.158931250000002 17.4063375 23.759999999999998 14.77775625 23.759999999999998 12s-0.59998125 -5.403065625 -1.6899562499999998 -7.404440624999999Zm-7.45670625 6.097771875c1.005871875 0.000046875 1.63455 1.0889625 1.1315718750000001 1.9600499999999998 -0.50296875 0.8710875 -1.760315625 0.87103125 -2.2632093749999997 -0.00009375 -0.11466562500000001 -0.198628125 -0.17503125 -0.4239375 -0.17503125 -0.6532875 0 -0.721678125 0.584990625 -1.306696875 1.30666875 -1.30666875Zm-10.453340625000001 0c1.005871875 0.000046875 1.6345593750000003 1.0889625 1.13158125 1.9600499999999998 -0.502978125 0.8710875 -1.760315625 0.87103125 -2.2632093749999997 -0.00009375 -0.11466562500000001 -0.198628125 -0.17503125 -0.4239375 -0.17503125 -0.6532875 0 -0.721678125 0.584990625 -1.306696875 1.306659375 -1.30666875Zm2.6133375 9.582225000000001c-1.315378125 0 -2.736375 -1.7117343750000003 -3.4517812500000002 -4.447021875 0.275325 0.060937500000000006 0.556471875 0.091603125 0.838453125 0.0914625 3.017615625 -0.00013125 4.90365 -3.2668875 3.394725 -5.88015 -0.700265625 -1.21276875 -1.994315625 -1.95984375 -3.394725 -1.95984375 -0.28198125 -0.00014062500000000002 -0.563128125 0.030525 -0.838453125 0.0914625 0.71540625 -2.7352875 2.136403125 -4.447021875 3.4517812500000002 -4.447021875 1.8511125000000002 0 3.919996875 3.3984281249999997 3.919996875 8.27555625s-2.068884375 8.27555625 -3.919996875 8.27555625Zm10.45333125 0c-1.315378125 0 -2.736375 -1.7117343750000003 -3.451771875 -4.447021875 0.275315625 0.060937500000000006 0.5564625 0.091603125 0.83844375 0.0914625 3.017615625 -0.00013125 4.903659375 -3.2668875 3.394725 -5.88015 -0.70025625 -1.21276875 -1.9943062500000002 -1.95984375 -3.394725 -1.95984375 -0.28198125 -0.00014062500000000002 -0.563128125 0.030525 -0.83844375 0.0914625 0.7153968749999999 -2.7352875 2.13639375 -4.447021875 3.451771875 -4.447021875 1.8511125000000002 0 3.919996875 3.3984281249999997 3.919996875 8.27555625s-2.068884375 8.27555625 -3.919996875 8.27555625Z" stroke-width="0.0938"></path>
</svg>