<svg xmlns="http://www.w3.org/2000/svg" viewBox="0 0 24 24" fill="#000000" id="Video-Bold--Streamline-Phosphor" height="24" width="24">
  <desc>
    Video Bold Streamline Icon: https://streamlinehq.com
  </desc>
  <path d="M21.582225 1.982221875H2.417775C1.215028125 1.982221875 0.24 2.95725 0.24 4.159996875v11.324446875c0 1.20275625 0.9750281249999999 2.177775 2.177775 2.177775h19.164450000000002c1.202784375 0.00005625 2.177775 -0.9749812500000001 2.177775 -2.177775V4.159996875c0 -1.2027468749999999 -0.9750281249999999 -2.177775 -2.177775 -2.177775Zm-0.43556249999999996 13.066668750000002H2.8533375000000003V4.595559375000001h18.293334375Zm2.6133375 5.66221875c0 0.72163125 -0.5850375 1.306640625 -1.30666875 1.30666875H1.5466687500000003c-1.005871875 0 -1.6345406249999999 -1.0888875 -1.131609375 -1.960003125 0.23341874999999998 -0.40427812499999993 0.66478125 -0.653334375 1.131609375 -0.653334375h20.9066625c0.72163125 0.0000375 1.30666875 0.5850375 1.30666875 1.30666875ZM9.3866625 12V7.644440625c-0.0003375 -1.005871875 1.08834375 -1.63490625 1.959628125 -1.1322562500000002 0.01333125 0.0076875 0.026521875 0.015609375000000002 0.039571875 0.023774999999999998l3.484453125 2.177775c0.819778125 0.511640625 0.819778125 1.70533125 0 2.21698125l-3.484453125 2.177775c-0.852975 0.533109375 -1.9632 -0.057065625 -1.99839375 -1.062328125 -0.00054375 -0.015384374999999999 -0.00080625 -0.030768749999999997 -0.00080625 -0.0461625Z" stroke-width="0.0938"></path>
</svg>