<svg xmlns="http://www.w3.org/2000/svg" viewBox="0 0 24 24" fill="#000000" id="X-Light--Streamline-Phosphor" height="24" width="24">
  <desc>
    X Light Streamline Icon: https://streamlinehq.com
  </desc>
  <path d="M23.472056249999998 22.19353125c0.509475 0.47473124999999994 0.313996875 1.3229625 -0.351871875 1.526821875 -0.330946875 0.10131562499999999 -0.690703125 0.004921875 -0.926653125 -0.24829687499999997L11.977425 13.25745 1.7613093749999997 23.472056249999998c-0.509475 0.47473124999999994 -1.3418062499999999 0.219909375 -1.4982 -0.45868125 -0.067471875 -0.2928 0.014840625 -0.6000000000000001 0.21968437500000002 -0.81984375l10.214596875 -10.21610625L0.48279375 1.7613093749999997C0.0080625 1.251834375 0.262884375 0.41950312500000003 0.941465625 0.26310937500000003c0.292809375 -0.067471875 0.600009375 0.014840625 0.81984375 0.21968437500000002l10.216115625 10.214596875L22.19353125 0.48279375c0.509484375 -0.47473124999999994 1.341815625 -0.219909375 1.4982 0.458671875 0.06748124999999999 0.292809375 -0.01483125 0.600009375 -0.219675 0.81984375L13.25745 11.977425Z" stroke-width="0.0938"></path>
</svg>