<svg width="272" height="272" viewBox="0 0 272 272" fill="none" xmlns="http://www.w3.org/2000/svg">
<rect x="1" y="1" width="78" height="78" fill="#5452FF" stroke="black" stroke-width="2"/>
<path d="M40 16L47.8998 29.1268L62.8254 32.5836L52.7822 44.1532L54.1068 59.4164L40 53.44L25.8932 59.4164L27.2178 44.1532L17.1746 32.5836L32.1002 29.1268L40 16Z" fill="#FFC600"/>
<rect x="193" y="193" width="78" height="78" fill="#F24D1D" stroke="black" stroke-width="2"/>
<rect x="193" y="97" width="78" height="78" fill="#FFC600" stroke="black" stroke-width="2"/>
<path d="M232 112L239.9 125.127L254.825 128.584L244.782 140.153L246.107 155.416L232 149.44L217.893 155.416L219.218 140.153L209.175 128.584L224.1 125.127L232 112Z" fill="#FFC600"/>
<rect x="97" y="1" width="78" height="78" fill="#F24D1D" stroke="black" stroke-width="2"/>
<path d="M136 18C148.15 18 158 27.8497 158 40C158 52.1503 148.15 62 136 62H114V40C114 27.8497 123.85 18 136 18Z" fill="#20A65A" stroke="black" stroke-width="2"/>
<rect x="193" y="1" width="78" height="78" fill="#5452FF" stroke="black" stroke-width="2"/>
<rect x="210" y="18" width="44" height="44" rx="8" fill="#FFC600"/>
<line x1="226.5" y1="29" x2="226.5" y2="51" stroke="black" stroke-width="2"/>
<line x1="243" y1="34.5" x2="221" y2="34.5" stroke="black" stroke-width="2"/>
<line x1="239.5" y1="29" x2="239.5" y2="51" stroke="black" stroke-width="2"/>
<line x1="243" y1="47.5" x2="221" y2="47.5" stroke="black" stroke-width="2"/>
<rect x="97" y="97" width="78" height="78" fill="#2C2C2C" stroke="black" stroke-width="2"/>
<path d="M144 113C148.418 113 152 116.582 152 121C152 124.437 149.831 127.367 146.788 128.499C146.898 128.54 147.007 128.583 147.114 128.629C149.985 129.843 152 132.686 152 136C152 140.28 148.639 143.775 144.412 143.989C144.276 143.996 144.138 144 144 144C143.862 144 143.724 143.996 143.588 143.989C140.861 143.851 138.494 142.347 137.158 140.148C137.103 140.058 137.052 139.965 137 139.872V151C137 155.418 133.418 159 129 159C124.582 159 121 155.418 121 151C121 147.562 123.168 144.632 126.212 143.5C123.168 142.368 121 139.438 121 136C121 132.562 123.168 129.632 126.212 128.5C123.168 127.368 121 124.438 121 121C121 116.582 124.582 113 129 113H144ZM129 145C125.686 145 123 147.686 123 151C123 154.314 125.686 157 129 157C132.314 157 135 154.314 135 151V145H129ZM129 130C125.686 130 123 132.686 123 136C123 139.314 125.686 142 129 142H135V130H129ZM144 130C140.686 130 138 132.686 138 136C138 139.21 140.521 141.832 143.691 141.992C143.794 141.997 143.897 142 144 142C144.103 142 144.206 141.997 144.309 141.992C147.479 141.832 150 139.21 150 136C150 132.686 147.314 130 144 130ZM129 115C125.686 115 123 117.686 123 121C123 124.314 125.686 127 129 127H135V115H129ZM138 127H144C147.314 127 150 124.314 150 121C150 117.686 147.314 115 144 115H138V127Z" fill="#FFFAFA"/>
<path d="M253.914 139.171L237.827 141.271L237.194 141.352L237.003 141.961L232.128 157.436L222.207 123.478L253.914 139.171Z" fill="#20A65A" stroke="black" stroke-width="2"/>
<rect x="1" y="97" width="78" height="78" fill="#FFC600" stroke="black" stroke-width="2"/>
<path d="M30 116H79V174H21V125C21 120.029 25.0294 116 30 116Z" fill="#F24D1D" stroke="black" stroke-width="2"/>
<mask id="path-19-inside-1_6_270" fill="white">
<path d="M80 176H20V134H80V176Z"/>
</mask>
<path d="M80 176H20V134H80V176Z" fill="#5452FF"/>
<path d="M80 176V178H82V176H80ZM20 176H18V178H20V176ZM20 134V132H18V134H20ZM80 134H82V132H80V134ZM80 176V174H20V176V178H80V176ZM20 176H22V134H20H18V176H20ZM20 134V136H80V134V132H20V134ZM80 134H78V176H80H82V134H80Z" fill="black" mask="url(#path-19-inside-1_6_270)"/>
<rect x="97" y="193" width="78" height="78" fill="#20A65A" stroke="black" stroke-width="2"/>
<circle cx="136" cy="232" r="21.5" fill="black" stroke="#FFC600" stroke-width="5"/>
<rect x="1" y="193" width="78" height="78" fill="#F24D1D" stroke="black" stroke-width="2"/>
<mask id="path-24-inside-2_6_270" fill="white">
<path d="M65 232C59.4293 241.686 50.3084 248 40 248C29.6916 248 20.5707 241.686 15 232C20.5707 222.314 29.6917 216 40 216C50.3083 216 59.4293 222.314 65 232Z"/>
</mask>
<path d="M65 232C59.4293 241.686 50.3084 248 40 248C29.6916 248 20.5707 241.686 15 232C20.5707 222.314 29.6917 216 40 216C50.3083 216 59.4293 222.314 65 232Z" fill="#20A65A"/>
<path d="M65 232L66.7337 232.997L67.3072 232L66.7337 231.003L65 232ZM40 248L40 250L40 250L40 248ZM15 232L13.2663 231.003L12.6928 232L13.2663 232.997L15 232ZM40 216L40 214L40 214L40 216ZM65 232L63.2663 231.003C57.9644 240.221 49.4321 246 40 246L40 248L40 250C51.1846 250 60.8941 243.151 66.7337 232.997L65 232ZM40 248L40 246C30.5679 246 22.0356 240.221 16.7337 231.003L15 232L13.2663 232.997C19.1059 243.151 28.8154 250 40 250L40 248ZM15 232L16.7337 232.997C22.0356 223.779 30.5679 218 40 218L40 216L40 214C28.8154 214 19.1059 220.849 13.2663 231.003L15 232ZM40 216L40 218C49.4321 218 57.9644 223.779 63.2663 232.997L65 232L66.7337 231.003C60.8941 220.849 51.1846 214 40 214L40 216Z" fill="black" mask="url(#path-24-inside-2_6_270)"/>
<circle cx="39.5" cy="231.735" r="7.5" fill="black"/>
<mask id="path-27-inside-3_6_270" fill="white">
<path d="M244.5 208C252.508 208 259 214.492 259 222.5C259 226.377 257.478 229.898 254.999 232.5C257.478 235.102 259 238.623 259 242.5C259 250.508 252.508 257 244.5 257C240.623 257 237.102 255.478 234.5 252.999C231.898 255.478 228.377 257 224.5 257C216.492 257 210 250.508 210 242.5C210 238.623 211.522 235.102 214 232.5C211.522 229.898 210 226.377 210 222.5C210 214.492 216.492 208 224.5 208C228.377 208 231.898 209.522 234.5 212C237.102 209.522 240.623 208 244.5 208Z"/>
</mask>
<path d="M244.5 208C252.508 208 259 214.492 259 222.5C259 226.377 257.478 229.898 254.999 232.5C257.478 235.102 259 238.623 259 242.5C259 250.508 252.508 257 244.5 257C240.623 257 237.102 255.478 234.5 252.999C231.898 255.478 228.377 257 224.5 257C216.492 257 210 250.508 210 242.5C210 238.623 211.522 235.102 214 232.5C211.522 229.898 210 226.377 210 222.5C210 214.492 216.492 208 224.5 208C228.377 208 231.898 209.522 234.5 212C237.102 209.522 240.623 208 244.5 208Z" fill="#FFC600"/>
<path d="M254.999 232.5L253.551 231.12L252.237 232.5L253.551 233.88L254.999 232.5ZM234.5 252.999L235.88 251.551L234.5 250.237L233.12 251.551L234.5 252.999ZM214 232.5L215.448 233.88L216.762 232.5L215.448 231.12L214 232.5ZM234.5 212L233.12 213.448L234.5 214.762L235.88 213.448L234.5 212ZM244.5 208V210C251.404 210 257 215.596 257 222.5H259H261C261 213.387 253.613 206 244.5 206V208ZM259 222.5H257C257 225.843 255.69 228.876 253.551 231.12L254.999 232.5L256.447 233.88C259.266 230.921 261 226.911 261 222.5H259ZM254.999 232.5L253.551 233.88C255.69 236.124 257 239.157 257 242.5H259H261C261 238.089 259.266 234.079 256.447 231.12L254.999 232.5ZM259 242.5H257C257 249.404 251.404 255 244.5 255V257V259C253.613 259 261 251.613 261 242.5H259ZM244.5 257V255C241.157 255 238.124 253.69 235.88 251.551L234.5 252.999L233.12 254.447C236.079 257.266 240.089 259 244.5 259V257ZM234.5 252.999L233.12 251.551C230.876 253.69 227.843 255 224.5 255V257V259C228.911 259 232.921 257.266 235.88 254.447L234.5 252.999ZM224.5 257V255C217.596 255 212 249.404 212 242.5H210H208C208 251.613 215.387 259 224.5 259V257ZM210 242.5H212C212 239.157 213.31 236.124 215.448 233.88L214 232.5L212.552 231.12C209.733 234.079 208 238.089 208 242.5H210ZM214 232.5L215.448 231.12C213.31 228.876 212 225.843 212 222.5H210H208C208 226.911 209.733 230.921 212.552 233.88L214 232.5ZM210 222.5H212C212 215.596 217.596 210 224.5 210V208V206C215.387 206 208 213.387 208 222.5H210ZM224.5 208V210C227.843 210 230.876 211.31 233.12 213.448L234.5 212L235.88 210.552C232.921 207.733 228.911 206 224.5 206V208ZM234.5 212L235.88 213.448C238.124 211.31 241.157 210 244.5 210V208V206C240.089 206 236.079 207.733 233.12 210.552L234.5 212Z" fill="black" mask="url(#path-27-inside-3_6_270)"/>
</svg>
