<svg width="283" height="42" viewBox="0 0 283 42" fill="none" xmlns="http://www.w3.org/2000/svg">
<rect width="283" height="42" rx="8" fill="black"/>
<path d="M70.5556 28V13.4545H73.6309V25.4645H79.8667V28H70.5556ZM86.4754 28.2131C85.3722 28.2131 84.4181 27.9787 83.6132 27.5099C82.813 27.0365 82.1951 26.3783 81.7595 25.5355C81.3239 24.688 81.1061 23.7055 81.1061 22.5881C81.1061 21.4612 81.3239 20.4763 81.7595 19.6335C82.1951 18.786 82.813 18.1278 83.6132 17.6591C84.4181 17.1856 85.3722 16.9489 86.4754 16.9489C87.5786 16.9489 88.5303 17.1856 89.3305 17.6591C90.1355 18.1278 90.7557 18.786 91.1913 19.6335C91.6269 20.4763 91.8447 21.4612 91.8447 22.5881C91.8447 23.7055 91.6269 24.688 91.1913 25.5355C90.7557 26.3783 90.1355 27.0365 89.3305 27.5099C88.5303 27.9787 87.5786 28.2131 86.4754 28.2131ZM86.4896 25.8693C86.9915 25.8693 87.4106 25.7273 87.7467 25.4432C88.0829 25.1544 88.3362 24.7614 88.5067 24.2642C88.6819 23.767 88.7695 23.2012 88.7695 22.5668C88.7695 21.9323 88.6819 21.3665 88.5067 20.8693C88.3362 20.3722 88.0829 19.9792 87.7467 19.6903C87.4106 19.4015 86.9915 19.2571 86.4896 19.2571C85.983 19.2571 85.5569 19.4015 85.2112 19.6903C84.8703 19.9792 84.6123 20.3722 84.4371 20.8693C84.2666 21.3665 84.1814 21.9323 84.1814 22.5668C84.1814 23.2012 84.2666 23.767 84.4371 24.2642C84.6123 24.7614 84.8703 25.1544 85.2112 25.4432C85.5569 25.7273 85.983 25.8693 86.4896 25.8693ZM98.4268 32.3182C97.4467 32.3182 96.6063 32.1832 95.9055 31.9134C95.2095 31.6482 94.6555 31.286 94.2436 30.8267C93.8317 30.3674 93.5642 29.8513 93.441 29.2784L96.2393 28.902C96.3246 29.1198 96.4595 29.3234 96.6442 29.5128C96.8288 29.7022 97.0727 29.8537 97.3757 29.9673C97.6835 30.0857 98.0575 30.1449 98.4979 30.1449C99.156 30.1449 99.6982 29.9839 100.124 29.6619C100.555 29.3447 100.771 28.812 100.771 28.0639V26.0682H100.643C100.51 26.3712 100.311 26.6577 100.046 26.9276C99.781 27.1974 99.4401 27.4176 99.0234 27.5881C98.6068 27.7585 98.1096 27.8438 97.532 27.8438C96.7128 27.8438 95.9671 27.6544 95.2947 27.2756C94.6271 26.892 94.0945 26.3073 93.6967 25.5213C93.3037 24.7306 93.1072 23.7315 93.1072 22.5241C93.1072 21.2884 93.3085 20.2562 93.7109 19.4276C94.1134 18.599 94.6484 17.9787 95.316 17.5668C95.9884 17.1548 96.7247 16.9489 97.5249 16.9489C98.1357 16.9489 98.647 17.053 99.0589 17.2614C99.4709 17.465 99.8023 17.7206 100.053 18.0284C100.309 18.3314 100.505 18.6297 100.643 18.9233H100.756V17.0909H103.761V28.1065C103.761 29.0346 103.533 29.8111 103.079 30.4361C102.624 31.0611 101.995 31.5298 101.19 31.8423C100.389 32.1596 99.4685 32.3182 98.4268 32.3182ZM98.4908 25.571C98.9785 25.571 99.3904 25.4503 99.7266 25.2088C100.067 24.9626 100.328 24.6122 100.508 24.1577C100.692 23.6984 100.785 23.1491 100.785 22.5099C100.785 21.8707 100.695 21.3168 100.515 20.848C100.335 20.3745 100.075 20.0076 99.7337 19.7472C99.3928 19.4867 98.9785 19.3565 98.4908 19.3565C97.9936 19.3565 97.5746 19.4915 97.2337 19.7614C96.8928 20.0265 96.6347 20.3958 96.4595 20.8693C96.2843 21.3428 96.1967 21.8897 96.1967 22.5099C96.1967 23.1397 96.2843 23.6842 96.4595 24.1435C96.6394 24.598 96.8975 24.9508 97.2337 25.2017C97.5746 25.4479 97.9936 25.571 98.4908 25.571ZM110.197 28V17.0909H113.223V28H110.197ZM111.717 15.6847C111.267 15.6847 110.881 15.5355 110.559 15.2372C110.242 14.9342 110.084 14.572 110.084 14.1506C110.084 13.7339 110.242 13.3764 110.559 13.0781C110.881 12.7751 111.267 12.6236 111.717 12.6236C112.167 12.6236 112.55 12.7751 112.868 13.0781C113.19 13.3764 113.351 13.7339 113.351 14.1506C113.351 14.572 113.19 14.9342 112.868 15.2372C112.55 15.5355 112.167 15.6847 111.717 15.6847ZM118.372 21.6932V28H115.346V17.0909H118.23V19.0156H118.358C118.599 18.3812 119.004 17.8793 119.572 17.5099C120.14 17.1359 120.829 16.9489 121.639 16.9489C122.397 16.9489 123.057 17.1146 123.621 17.446C124.184 17.7775 124.622 18.2509 124.935 18.8665C125.247 19.4773 125.403 20.2064 125.403 21.054V28H122.378V21.5938C122.382 20.9261 122.212 20.4053 121.866 20.0312C121.521 19.6525 121.045 19.4631 120.439 19.4631C120.032 19.4631 119.672 19.5507 119.359 19.7259C119.051 19.901 118.81 20.1567 118.635 20.4929C118.464 20.8243 118.377 21.2244 118.372 21.6932ZM137.619 17.0909V19.3636H131.05V17.0909H137.619ZM132.541 14.4773H135.567V24.6477C135.567 24.9271 135.609 25.1449 135.695 25.3011C135.78 25.4527 135.898 25.5592 136.05 25.6207C136.206 25.6823 136.386 25.7131 136.589 25.7131C136.732 25.7131 136.874 25.7012 137.016 25.6776C137.158 25.6491 137.267 25.6278 137.342 25.6136L137.818 27.8651C137.667 27.9124 137.454 27.9669 137.179 28.0284C136.904 28.0947 136.571 28.1349 136.178 28.1491C135.448 28.1776 134.809 28.0805 134.26 27.858C133.715 27.6354 133.292 27.2898 132.989 26.821C132.686 26.3523 132.536 25.7604 132.541 25.0455V14.4773ZM144.102 28.2131C142.999 28.2131 142.045 27.9787 141.24 27.5099C140.44 27.0365 139.822 26.3783 139.386 25.5355C138.95 24.688 138.733 23.7055 138.733 22.5881C138.733 21.4612 138.95 20.4763 139.386 19.6335C139.822 18.786 140.44 18.1278 141.24 17.6591C142.045 17.1856 142.999 16.9489 144.102 16.9489C145.205 16.9489 146.157 17.1856 146.957 17.6591C147.762 18.1278 148.382 18.786 148.818 19.6335C149.254 20.4763 149.471 21.4612 149.471 22.5881C149.471 23.7055 149.254 24.688 148.818 25.5355C148.382 26.3783 147.762 27.0365 146.957 27.5099C146.157 27.9787 145.205 28.2131 144.102 28.2131ZM144.116 25.8693C144.618 25.8693 145.037 25.7273 145.373 25.4432C145.709 25.1544 145.963 24.7614 146.133 24.2642C146.308 23.767 146.396 23.2012 146.396 22.5668C146.396 21.9323 146.308 21.3665 146.133 20.8693C145.963 20.3722 145.709 19.9792 145.373 19.6903C145.037 19.4015 144.618 19.2571 144.116 19.2571C143.61 19.2571 143.183 19.4015 142.838 19.6903C142.497 19.9792 142.239 20.3722 142.064 20.8693C141.893 21.3665 141.808 21.9323 141.808 22.5668C141.808 23.2012 141.893 23.767 142.064 24.2642C142.239 24.7614 142.497 25.1544 142.838 25.4432C143.183 25.7273 143.61 25.8693 144.116 25.8693ZM155.524 28V13.4545H165.155V15.9901H158.6V19.456H164.516V21.9915H158.6V28H155.524ZM166.867 28V17.0909H169.892V28H166.867ZM168.387 15.6847C167.937 15.6847 167.551 15.5355 167.229 15.2372C166.912 14.9342 166.753 14.572 166.753 14.1506C166.753 13.7339 166.912 13.3764 167.229 13.0781C167.551 12.7751 167.937 12.6236 168.387 12.6236C168.836 12.6236 169.22 12.7751 169.537 13.0781C169.859 13.3764 170.02 13.7339 170.02 14.1506C170.02 14.572 169.859 14.9342 169.537 15.2372C169.22 15.5355 168.836 15.6847 168.387 15.6847ZM176.931 32.3182C175.951 32.3182 175.11 32.1832 174.409 31.9134C173.713 31.6482 173.159 31.286 172.748 30.8267C172.336 30.3674 172.068 29.8513 171.945 29.2784L174.743 28.902C174.828 29.1198 174.963 29.3234 175.148 29.5128C175.333 29.7022 175.577 29.8537 175.88 29.9673C176.187 30.0857 176.561 30.1449 177.002 30.1449C177.66 30.1449 178.202 29.9839 178.628 29.6619C179.059 29.3447 179.275 28.812 179.275 28.0639V26.0682H179.147C179.014 26.3712 178.815 26.6577 178.55 26.9276C178.285 27.1974 177.944 27.4176 177.527 27.5881C177.111 27.7585 176.614 27.8438 176.036 27.8438C175.217 27.8438 174.471 27.6544 173.799 27.2756C173.131 26.892 172.598 26.3073 172.201 25.5213C171.808 24.7306 171.611 23.7315 171.611 22.5241C171.611 21.2884 171.812 20.2562 172.215 19.4276C172.617 18.599 173.152 17.9787 173.82 17.5668C174.492 17.1548 175.229 16.9489 176.029 16.9489C176.64 16.9489 177.151 17.053 177.563 17.2614C177.975 17.465 178.306 17.7206 178.557 18.0284C178.813 18.3314 179.009 18.6297 179.147 18.9233H179.26V17.0909H182.265V28.1065C182.265 29.0346 182.037 29.8111 181.583 30.4361C181.128 31.0611 180.498 31.5298 179.694 31.8423C178.893 32.1596 177.972 32.3182 176.931 32.3182ZM176.995 25.571C177.482 25.571 177.894 25.4503 178.23 25.2088C178.571 24.9626 178.832 24.6122 179.012 24.1577C179.196 23.6984 179.289 23.1491 179.289 22.5099C179.289 21.8707 179.199 21.3168 179.019 20.848C178.839 20.3745 178.578 20.0076 178.238 19.7472C177.897 19.4867 177.482 19.3565 176.995 19.3565C176.498 19.3565 176.078 19.4915 175.738 19.7614C175.397 20.0265 175.139 20.3958 174.963 20.8693C174.788 21.3428 174.701 21.8897 174.701 22.5099C174.701 23.1397 174.788 23.6842 174.963 24.1435C175.143 24.598 175.401 24.9508 175.738 25.2017C176.078 25.4479 176.498 25.571 176.995 25.571ZM184.372 28V17.0909H187.256V19.0156H187.384C187.611 18.3764 187.99 17.8722 188.52 17.5028C189.05 17.1335 189.685 16.9489 190.423 16.9489C191.171 16.9489 191.808 17.1359 192.334 17.5099C192.859 17.8793 193.21 18.3812 193.385 19.0156H193.499C193.721 18.3906 194.124 17.8911 194.706 17.517C195.293 17.1383 195.987 16.9489 196.787 16.9489C197.805 16.9489 198.631 17.2732 199.266 17.9219C199.905 18.5658 200.225 19.4796 200.225 20.6634V28H197.206V21.2599C197.206 20.6539 197.045 20.1993 196.723 19.8963C196.401 19.5933 195.999 19.4418 195.516 19.4418C194.966 19.4418 194.538 19.617 194.23 19.9673C193.922 20.313 193.769 20.7699 193.769 21.3381V28H190.835V21.196C190.835 20.661 190.681 20.2348 190.374 19.9176C190.071 19.6004 189.671 19.4418 189.173 19.4418C188.837 19.4418 188.534 19.527 188.264 19.6974C187.999 19.8632 187.788 20.0975 187.632 20.4006C187.476 20.6989 187.398 21.0492 187.398 21.4517V28H184.372ZM205.425 28.206C204.729 28.206 204.109 28.0852 203.564 27.8438C203.02 27.5975 202.589 27.2353 202.272 26.7571C201.959 26.2741 201.803 25.6728 201.803 24.9531C201.803 24.3471 201.914 23.8381 202.137 23.4261C202.359 23.0142 202.662 22.6828 203.046 22.4318C203.429 22.1809 203.865 21.9915 204.353 21.8636C204.845 21.7358 205.361 21.6458 205.901 21.5938C206.536 21.5275 207.047 21.4659 207.435 21.4091C207.823 21.3475 208.105 21.2576 208.28 21.1392C208.456 21.0208 208.543 20.8456 208.543 20.6136V20.571C208.543 20.1212 208.401 19.7732 208.117 19.527C207.838 19.2808 207.44 19.1577 206.924 19.1577C206.379 19.1577 205.946 19.2784 205.624 19.5199C205.302 19.7566 205.089 20.0549 204.985 20.4148L202.187 20.1875C202.329 19.5246 202.608 18.9517 203.025 18.4688C203.441 17.9811 203.979 17.607 204.637 17.3466C205.3 17.0814 206.067 16.9489 206.938 16.9489C207.544 16.9489 208.124 17.0199 208.678 17.1619C209.237 17.304 209.732 17.5241 210.162 17.8224C210.598 18.1207 210.941 18.5043 211.192 18.973C211.443 19.437 211.569 19.9934 211.569 20.642V28H208.699V26.4872H208.614C208.439 26.8281 208.205 27.1288 207.911 27.3892C207.617 27.6449 207.265 27.8461 206.853 27.9929C206.441 28.1349 205.965 28.206 205.425 28.206ZM206.292 26.1179C206.737 26.1179 207.13 26.0303 207.471 25.8551C207.812 25.6752 208.079 25.4337 208.273 25.1307C208.467 24.8277 208.564 24.4844 208.564 24.1009V22.9432C208.47 23.0047 208.34 23.0616 208.174 23.1136C208.013 23.161 207.831 23.206 207.627 23.2486C207.423 23.2865 207.22 23.322 207.016 23.3551C206.813 23.3835 206.628 23.4096 206.462 23.4332C206.107 23.4853 205.797 23.5682 205.532 23.6818C205.267 23.7955 205.061 23.9493 204.914 24.1435C204.767 24.3329 204.694 24.5696 204.694 24.8537C204.694 25.2656 204.843 25.5805 205.141 25.7983C205.444 26.0114 205.828 26.1179 206.292 26.1179Z" fill="white"/>
</svg>
