<svg width="283" height="42" viewBox="0 0 283 42" fill="none" xmlns="http://www.w3.org/2000/svg">
<rect x="1" y="1" width="281" height="40" rx="7" fill="black" stroke="white" stroke-width="2"/>
<path d="M112.365 17.6378C112.309 17.0649 112.065 16.6198 111.634 16.3026C111.203 15.9853 110.618 15.8267 109.88 15.8267C109.378 15.8267 108.954 15.8977 108.608 16.0398C108.263 16.1771 107.997 16.3688 107.813 16.6151C107.633 16.8613 107.543 17.1406 107.543 17.4531C107.533 17.7135 107.588 17.9408 107.706 18.1349C107.829 18.3291 107.997 18.4972 108.211 18.6392C108.424 18.7765 108.67 18.8973 108.949 19.0014C109.229 19.1009 109.527 19.1861 109.844 19.2571L111.151 19.5696C111.785 19.7116 112.368 19.901 112.898 20.1378C113.428 20.3745 113.888 20.6657 114.276 21.0114C114.664 21.357 114.965 21.7642 115.178 22.233C115.396 22.7017 115.507 23.2391 115.512 23.8452C115.507 24.7353 115.28 25.5071 114.83 26.1605C114.385 26.8092 113.741 27.3134 112.898 27.6733C112.06 28.0284 111.049 28.206 109.865 28.206C108.691 28.206 107.668 28.026 106.797 27.6662C105.931 27.3063 105.254 26.7737 104.766 26.0682C104.283 25.358 104.03 24.4796 104.006 23.4332H106.982C107.015 23.9209 107.155 24.3281 107.401 24.6548C107.652 24.9768 107.986 25.2206 108.402 25.3864C108.824 25.5473 109.3 25.6278 109.83 25.6278C110.351 25.6278 110.803 25.5521 111.186 25.4006C111.575 25.2491 111.875 25.0384 112.088 24.7685C112.301 24.4986 112.408 24.1884 112.408 23.8381C112.408 23.5114 112.311 23.2367 112.117 23.0142C111.927 22.7917 111.648 22.6023 111.279 22.446C110.914 22.2898 110.467 22.1477 109.936 22.0199L108.353 21.6222C107.126 21.3239 106.158 20.8575 105.448 20.223C104.738 19.5885 104.385 18.7339 104.39 17.6591C104.385 16.7784 104.619 16.009 105.093 15.3509C105.571 14.6927 106.227 14.179 107.06 13.8097C107.893 13.4403 108.84 13.2557 109.901 13.2557C110.98 13.2557 111.923 13.4403 112.728 13.8097C113.537 14.179 114.167 14.6927 114.617 15.3509C115.067 16.009 115.299 16.7713 115.313 17.6378H112.365ZM117.223 28V17.0909H120.249V28H117.223ZM118.743 15.6847C118.293 15.6847 117.908 15.5355 117.586 15.2372C117.268 14.9342 117.11 14.572 117.11 14.1506C117.11 13.7339 117.268 13.3764 117.586 13.0781C117.908 12.7751 118.293 12.6236 118.743 12.6236C119.193 12.6236 119.577 12.7751 119.894 13.0781C120.216 13.3764 120.377 13.7339 120.377 14.1506C120.377 14.572 120.216 14.9342 119.894 15.2372C119.577 15.5355 119.193 15.6847 118.743 15.6847ZM127.287 32.3182C126.307 32.3182 125.467 32.1832 124.766 31.9134C124.07 31.6482 123.516 31.286 123.104 30.8267C122.692 30.3674 122.425 29.8513 122.302 29.2784L125.1 28.902C125.185 29.1198 125.32 29.3234 125.505 29.5128C125.689 29.7022 125.933 29.8537 126.236 29.9673C126.544 30.0857 126.918 30.1449 127.358 30.1449C128.017 30.1449 128.559 29.9839 128.985 29.6619C129.416 29.3447 129.631 28.812 129.631 28.0639V26.0682H129.503C129.371 26.3712 129.172 26.6577 128.907 26.9276C128.642 27.1974 128.301 27.4176 127.884 27.5881C127.467 27.7585 126.97 27.8438 126.393 27.8438C125.573 27.8438 124.828 27.6544 124.155 27.2756C123.488 26.892 122.955 26.3073 122.557 25.5213C122.164 24.7306 121.968 23.7315 121.968 22.5241C121.968 21.2884 122.169 20.2562 122.571 19.4276C122.974 18.599 123.509 17.9787 124.177 17.5668C124.849 17.1548 125.585 16.9489 126.385 16.9489C126.996 16.9489 127.508 17.053 127.919 17.2614C128.331 17.465 128.663 17.7206 128.914 18.0284C129.169 18.3314 129.366 18.6297 129.503 18.9233H129.617V17.0909H132.621V28.1065C132.621 29.0346 132.394 29.8111 131.939 30.4361C131.485 31.0611 130.855 31.5298 130.05 31.8423C129.25 32.1596 128.329 32.3182 127.287 32.3182ZM127.351 25.571C127.839 25.571 128.251 25.4503 128.587 25.2088C128.928 24.9626 129.188 24.6122 129.368 24.1577C129.553 23.6984 129.645 23.1491 129.645 22.5099C129.645 21.8707 129.555 21.3168 129.375 20.848C129.196 20.3745 128.935 20.0076 128.594 19.7472C128.253 19.4867 127.839 19.3565 127.351 19.3565C126.854 19.3565 126.435 19.4915 126.094 19.7614C125.753 20.0265 125.495 20.3958 125.32 20.8693C125.145 21.3428 125.057 21.8897 125.057 22.5099C125.057 23.1397 125.145 23.6842 125.32 24.1435C125.5 24.598 125.758 24.9508 126.094 25.2017C126.435 25.4479 126.854 25.571 127.351 25.571ZM137.754 21.6932V28H134.729V17.0909H137.612V19.0156H137.74C137.982 18.3812 138.387 17.8793 138.955 17.5099C139.523 17.1359 140.212 16.9489 141.021 16.9489C141.779 16.9489 142.44 17.1146 143.003 17.446C143.566 17.7775 144.004 18.2509 144.317 18.8665C144.629 19.4773 144.786 20.2064 144.786 21.054V28H141.76V21.5938C141.765 20.9261 141.594 20.4053 141.249 20.0312C140.903 19.6525 140.427 19.4631 139.821 19.4631C139.414 19.4631 139.054 19.5507 138.742 19.7259C138.434 19.901 138.192 20.1567 138.017 20.4929C137.847 20.8243 137.759 21.2244 137.754 21.6932ZM158.195 23.3551V17.0909H161.22V28H158.316V26.0185H158.202C157.956 26.6577 157.546 27.1714 156.973 27.5597C156.405 27.9479 155.711 28.142 154.892 28.142C154.163 28.142 153.522 27.9763 152.968 27.6449C152.414 27.3134 151.98 26.8423 151.668 26.2315C151.36 25.6207 151.204 24.8892 151.199 24.0369V17.0909H154.225V23.4972C154.229 24.1411 154.402 24.6501 154.743 25.0241C155.084 25.3982 155.541 25.5852 156.114 25.5852C156.479 25.5852 156.819 25.5024 157.137 25.3366C157.454 25.1662 157.71 24.9152 157.904 24.5838C158.103 24.2524 158.2 23.8428 158.195 23.3551ZM163.341 32.0909V17.0909H166.324V18.9233H166.458C166.591 18.6297 166.783 18.3314 167.034 18.0284C167.289 17.7206 167.621 17.465 168.028 17.2614C168.44 17.053 168.951 16.9489 169.562 16.9489C170.358 16.9489 171.092 17.1572 171.764 17.5739C172.436 17.9858 172.974 18.6084 173.376 19.4418C173.779 20.2704 173.98 21.3097 173.98 22.5597C173.98 23.7765 173.783 24.804 173.39 25.642C173.002 26.4754 172.472 27.1075 171.799 27.5384C171.132 27.9645 170.384 28.1776 169.555 28.1776C168.968 28.1776 168.468 28.0805 168.057 27.8864C167.649 27.6922 167.315 27.4484 167.055 27.1548C166.795 26.8565 166.596 26.5559 166.458 26.2528H166.366V32.0909H163.341ZM166.302 22.5455C166.302 23.1941 166.392 23.7599 166.572 24.2429C166.752 24.7259 167.012 25.1023 167.353 25.3722C167.694 25.6373 168.109 25.7699 168.596 25.7699C169.089 25.7699 169.505 25.6349 169.846 25.3651C170.187 25.0904 170.445 24.7116 170.62 24.2287C170.8 23.741 170.89 23.1799 170.89 22.5455C170.89 21.9157 170.803 21.3617 170.628 20.8835C170.452 20.4053 170.194 20.0312 169.853 19.7614C169.512 19.4915 169.093 19.3565 168.596 19.3565C168.104 19.3565 167.687 19.4867 167.346 19.7472C167.01 20.0076 166.752 20.3769 166.572 20.8551C166.392 21.3333 166.302 21.8968 166.302 22.5455Z" fill="white"/>
</svg>
